<svg width="924" height="266" viewBox="0 0 924 266" fill="none" xmlns="http://www.w3.org/2000/svg">
<path d="M158.834 251.731C185.825 246.972 212.812 242.196 239.797 237.403L240.557 237.241L198.912 187.705C176.008 160.461 157.268 138.065 157.268 137.937C157.268 137.693 200.269 19.2748 200.511 18.8526C200.592 18.7131 229.856 69.236 271.449 141.327C310.389 208.817 342.493 264.464 342.791 264.985L343.334 265.932L210.985 265.915L78.6339 265.898L158.834 251.731V251.731ZM666.382 239.751C646.234 238.46 634.519 226.989 631.414 205.515C630.587 199.804 630.584 199.654 630.5 162.573L630.418 126.682H648.251L648.321 161.396C648.383 192.685 648.423 196.354 648.722 198.553C649.936 207.486 652.354 213.494 656.467 217.805C659.76 221.255 663.615 223.277 668.951 224.348C671.47 224.854 678.633 224.854 680.927 224.349C686.336 223.16 690.673 220.805 694.498 216.981C698.859 212.624 702.083 206.44 703.644 199.45L704.169 197.092L704.228 162.083L704.286 127.075H722.492V237.143H704.474V228.412C704.474 222.479 704.41 219.701 704.272 219.748C704.16 219.784 703.696 220.493 703.243 221.321C700.138 226.982 694.966 232.161 689.298 235.28C682.504 239.018 675.692 240.349 666.382 239.753V239.751ZM870.867 239.664C863.755 239.128 856.267 236.682 850.147 232.895C837.247 224.918 829.616 211.765 827.379 193.664C826.607 187.401 826.514 178.986 827.16 173.664C828.6 161.773 833.274 150.098 839.929 141.763C841.635 139.628 845.505 135.757 847.641 134.053C853.395 129.453 860.129 126.237 867.324 124.656C871.499 123.743 878.851 123.314 883.286 123.726C894.429 124.758 904.64 130.004 911.58 138.26C918.632 146.651 922.508 158.373 923.004 172.806C923.08 175.069 923.1 179.034 923.046 181.619L922.946 186.32L883.924 186.369L844.9 186.418V188.16C844.9 193.461 846.187 199.499 848.417 204.636C850.337 209.067 853.645 213.904 856.354 216.245C861.906 221.046 868.701 223.919 876.137 224.609C878.893 224.866 885.923 224.595 889.063 224.112C898.029 222.734 906.551 219.219 913.432 214.059C913.999 213.629 914.574 213.208 915.156 212.798C915.356 212.673 915.405 214.258 915.4 220.927L915.393 229.211L913.549 230.352C905.762 235.166 896.843 238.259 887.4 239.416C884.58 239.761 874.239 239.916 870.867 239.662V239.664ZM904.831 169.792C904.831 160.911 901.087 151.046 895.791 145.967C892.013 142.342 887.444 140.127 882.012 139.286C879.443 138.888 874.028 139.042 871.319 139.588C865.592 140.746 860.856 143.263 856.724 147.345C852.377 151.641 849.116 156.861 847.067 162.805C846.329 164.944 845.467 168.454 845.2 170.408L845.071 171.337H904.829L904.831 169.792ZM375.487 236.899C375.532 236.763 388.784 201.951 404.934 159.538L434.299 82.4219H453.168L453.951 84.428C456.343 90.563 512.737 236.975 512.737 237.052C512.737 237.101 508.219 237.143 502.7 237.141L492.663 237.139L484.534 215.5L476.405 193.859H410.955L410.669 194.594C410.512 194.998 407.041 204.736 402.952 216.231L395.521 237.136L385.461 237.139C377.5 237.141 375.42 237.091 375.487 236.897V236.899ZM470.434 177.345C470.434 177.31 464.964 162.483 458.277 144.393C445.77 110.552 445.072 108.516 444.083 103.083C443.621 100.536 443.385 100.466 443.11 102.79C442.914 104.45 442.063 108.169 441.404 110.231C441.078 111.255 435.447 126.712 428.889 144.583C422.331 162.453 416.967 177.148 416.967 177.24C416.967 177.333 428.996 177.408 443.699 177.408C458.403 177.408 470.432 177.38 470.432 177.347L470.434 177.345ZM518.808 234.324V231.507L551.414 186.684L584.019 141.862L554.498 141.763L524.978 141.665L524.925 134.175L524.875 126.682H610.27V131.743L577.662 176.809C559.726 201.597 545.052 221.92 545.052 221.97C545.052 222.021 559.55 222.063 577.27 222.063H609.487V237.143H518.808V234.324ZM758.073 237.012C758.001 236.941 757.942 212.086 757.942 181.783V126.682H775.764V138.042C775.764 144.29 775.839 149.402 775.934 149.402C776.026 149.402 776.459 148.379 776.897 147.129C778.901 141.402 782.374 136.05 786.852 131.795C790.883 127.965 795.492 125.672 800.931 124.795C802.459 124.551 803.752 124.502 806.806 124.582C810.644 124.682 812.65 124.963 814.984 125.725L815.716 125.966V144.465L813.613 143.411C809.893 141.55 806.223 140.812 801.812 141.042C798.94 141.191 797.056 141.56 794.761 142.42C790.101 144.142 786.149 147.37 783.532 151.592C779.656 157.775 776.893 165.72 776.078 173.024C775.932 174.334 775.846 185.008 775.811 206.051L775.759 237.143H766.981C762.153 237.143 758.144 237.084 758.073 237.012V237.012ZM0 236.625C0 236.555 19.6227 202.492 43.6064 160.928L87.2128 85.3578L138.031 42.7125C165.979 19.2573 188.923 0.0358438 189.016 0.000955853C189.107 -0.0339321 188.74 0.890598 188.198 2.05585C187.657 3.22286 162.825 56.4828 133.017 120.413L78.8188 236.651L39.4094 236.702C17.7353 236.729 0 236.695 0 236.625Z" fill="#0089D6"/>
</svg>
