<svg width="518" height="534" viewBox="0 0 518 534" fill="none" xmlns="http://www.w3.org/2000/svg">
<path d="M386.689 388.827C390.084 360.549 389.067 356.401 410.13 360.982L415.477 361.451C431.673 362.188 452.859 358.847 465.306 353.064C492.1 340.632 507.988 319.874 481.568 325.328C421.303 337.761 417.159 317.354 417.159 317.354C480.796 222.934 507.399 103.075 484.436 73.7362C421.807 -6.28965 313.397 31.554 311.583 32.5365L311.006 32.6443C299.098 30.1725 285.772 28.6963 270.802 28.4542C243.53 28.0061 222.836 35.6038 207.138 47.5103C207.138 47.5103 13.7409 -32.167 22.7381 147.712C24.6516 185.978 77.5876 437.261 140.724 361.362C163.8 333.608 186.1 310.141 186.1 310.141C197.174 317.498 210.432 321.251 224.337 319.903L225.412 318.986C225.075 322.432 225.224 325.804 225.842 329.794C209.58 347.966 214.359 351.158 181.841 357.85C148.942 364.631 168.27 376.702 180.886 379.857C196.184 383.683 231.575 389.102 255.495 355.625L254.542 359.445C260.923 364.549 260.491 396.133 261.396 418.697C262.302 441.264 263.813 462.323 268.412 474.738C273.012 487.151 278.44 519.131 321.176 509.972C356.893 502.318 384.201 491.302 386.689 388.827" fill="black"/>
<path d="M386.689 388.827C390.084 360.549 389.067 356.401 410.13 360.982L415.477 361.451C431.673 362.188 452.859 358.847 465.306 353.064C492.1 340.632 507.988 319.874 481.568 325.328C421.303 337.761 417.159 317.354 417.159 317.354C480.796 222.934 507.399 103.075 484.436 73.7362C421.807 -6.28965 313.397 31.554 311.583 32.5365L311.006 32.6443C299.098 30.1725 285.772 28.6963 270.802 28.4542C243.53 28.0061 222.836 35.6038 207.138 47.5103C207.138 47.5103 13.7409 -32.167 22.7381 147.712C24.6516 185.978 77.5876 437.261 140.724 361.362C163.8 333.608 186.1 310.141 186.1 310.141C197.174 317.498 210.432 321.251 224.337 319.903L225.412 318.986C225.075 322.432 225.224 325.804 225.842 329.794C209.58 347.966 214.359 351.158 181.841 357.85C148.942 364.631 168.27 376.702 180.886 379.857C196.184 383.683 231.575 389.102 255.495 355.625L254.542 359.445C260.923 364.549 260.491 396.133 261.396 418.697C262.302 441.264 263.813 462.323 268.412 474.738C273.012 487.151 278.44 519.131 321.176 509.972C356.893 502.318 384.201 491.302 386.689 388.827" stroke="black" stroke-width="44.8063"/>
<path d="M481.574 325.326C421.303 337.759 417.159 317.352 417.159 317.352C480.796 222.925 507.398 103.064 484.441 73.7291C421.812 -6.29203 313.397 31.5528 311.588 32.5353L311.006 32.6395C299.098 30.1677 285.772 28.6951 270.794 28.4507C243.522 28.0038 222.836 35.6003 207.138 47.5043C207.138 47.5043 13.7372 -32.1693 22.732 147.709C24.6455 185.977 77.5804 437.26 140.719 361.36C163.796 333.607 186.093 310.14 186.093 310.14C197.168 317.497 210.426 321.25 224.325 319.902L225.405 318.985C225.069 322.431 225.222 325.803 225.837 329.793C209.572 347.965 214.351 351.157 181.836 357.849C148.935 364.63 168.263 376.701 180.882 379.856C196.181 383.682 231.574 389.101 255.489 355.624L254.535 359.443C260.908 364.548 265.383 392.646 264.633 418.119C263.883 443.59 263.382 461.077 268.404 474.737C273.426 488.396 278.43 519.13 321.175 509.971C356.892 502.317 375.4 482.482 377.975 449.396C379.802 425.876 383.937 429.352 384.198 408.322L387.515 398.367C391.339 366.483 388.122 356.195 410.127 360.979L415.475 361.449C431.671 362.186 452.868 358.844 465.308 353.062C492.098 340.629 507.986 319.872 481.572 325.326H481.574Z" fill="#336791"/>
<path d="M311.376 31.7421C304.677 33.8425 419.031 -10.0616 484.019 72.9802C506.976 102.317 480.373 222.179 416.737 316.608M258.077 343.603C256.417 402.933 258.494 462.676 264.299 477.195C270.108 491.715 282.539 519.956 325.287 510.799C361 503.142 373.994 488.325 379.633 455.622C383.786 431.559 391.792 364.733 392.819 351.042L258.077 343.603ZM206.84 46.1791C206.84 46.1791 13.3071 -32.9206 22.3043 146.959C24.2178 185.225 77.1562 436.517 140.294 360.614C163.366 332.857 184.232 311.087 184.232 311.087L206.84 46.1791Z" stroke="white" stroke-width="14.9354" stroke-linecap="round" stroke-linejoin="round"/>
<path d="M416.736 316.607C416.736 316.607 420.883 337.019 481.156 324.578C507.564 319.124 491.671 339.884 464.888 352.322C442.907 362.524 393.627 365.138 392.822 351.042C390.75 314.671 418.759 325.72 416.737 316.607C414.91 308.399 402.384 300.344 394.099 280.256C386.865 262.723 294.894 128.267 419.605 148.236C424.173 147.291 387.079 29.6129 270.367 27.6994C153.681 25.7859 157.509 171.197 157.509 171.197" stroke="white" stroke-width="14.9354" stroke-linecap="round" stroke-linejoin="bevel"/>
<path d="M225.412 329.045C209.144 347.217 213.928 350.409 181.411 357.103C148.51 363.885 167.84 375.954 180.456 379.108C195.754 382.936 231.147 388.356 255.062 354.87C262.345 344.674 255.019 328.407 245.015 324.26C240.182 322.259 233.719 319.748 225.412 329.045V329.045Z" stroke="white" stroke-width="14.9354" stroke-linecap="round" stroke-linejoin="round"/>
<path d="M224.347 328.729C222.707 318.044 227.857 305.33 233.376 290.455C241.67 268.138 260.806 245.817 245.498 175.023C234.088 122.268 157.556 164.044 157.508 171.197C157.461 178.348 160.97 207.454 156.23 241.349C150.044 285.577 184.373 322.984 223.902 319.157" stroke="white" stroke-width="14.9354" stroke-linecap="round" stroke-linejoin="round"/>
<path d="M206.136 170.125C205.791 172.569 210.609 179.087 216.891 179.958C223.163 180.833 228.531 175.738 228.871 173.297C229.211 170.854 224.399 168.163 218.115 167.288C211.84 166.414 206.47 167.687 206.138 170.125H206.136Z" fill="white" stroke="white" stroke-width="4.97848"/>
<path d="M397.157 165.144C397.497 167.588 392.685 174.106 386.402 174.977C380.126 175.852 374.758 170.757 374.414 168.317C374.082 165.873 378.895 163.182 385.172 162.308C391.45 161.433 396.816 162.707 397.157 165.145V165.144Z" fill="white" stroke="white" stroke-width="2.48984"/>
<path d="M419.605 148.236C420.639 167.4 415.477 180.453 414.826 200.853C413.863 230.506 428.964 264.446 406.21 298.428" stroke="white" stroke-width="14.9354" stroke-linecap="round" stroke-linejoin="round"/>
</svg>
