<svg width="924" height="145" viewBox="0 0 924 145" fill="none" xmlns="http://www.w3.org/2000/svg">
<path d="M108.581 37.9219H113.798L128.672 23.0488L129.401 16.7319C101.719 -7.70396 59.4726 -5.06419 35.0368 22.6174C28.2474 30.3005 23.3274 39.4523 20.6362 49.354C22.2899 48.6761 24.1285 48.5631 25.8541 49.0459L55.6003 44.1361C55.6003 44.1361 57.1102 41.6299 57.9011 41.784C71.1308 27.2498 93.3993 25.555 108.683 37.9219H108.581Z" fill="#EA4335"/>
<path d="M149.862 49.354C146.441 36.7612 139.426 25.442 129.668 16.7935L108.796 37.6651C117.609 44.8654 122.632 55.7223 122.416 67.1031V70.8111C132.677 70.8111 140.997 79.131 140.997 89.3922C140.997 99.6534 132.677 107.973 122.416 107.973H85.254L81.546 111.733V134.022L85.254 137.73H122.416C149.101 137.935 170.908 116.468 171.113 89.7825C171.236 73.5741 163.256 58.4134 149.862 49.354V49.354Z" fill="#4285F4"/>
<path d="M48.0405 137.493H85.2026V107.747H48.0405C45.3904 107.747 42.7815 107.172 40.3677 106.073L35.1498 107.696L20.174 122.569L18.8695 127.787C27.2613 134.135 37.5122 137.545 48.0405 137.493Z" fill="#34A853"/>
<path d="M48.0405 41.0033C21.3449 41.1574 -0.153249 62.9226 0.000822996 89.6182C0.0932662 104.522 7.04705 118.553 18.8695 127.633L40.419 106.083C31.072 101.862 26.9121 90.8507 31.1336 81.5037C35.3552 72.1567 46.3662 67.9967 55.7133 72.2183C59.8321 74.0774 63.1292 77.3849 64.9987 81.5037L86.5482 59.9542C77.386 47.9571 63.1293 40.9417 48.0405 41.0033V41.0033Z" fill="#FBBC05"/>
<path d="M270.048 116.725C257.116 116.889 244.688 111.784 235.608 102.581C226.23 93.7678 220.991 81.4215 221.156 68.5514C221.002 55.6812 226.24 43.3452 235.608 34.522C244.647 25.2263 257.085 20.0187 270.048 20.1214C282.394 19.9571 294.299 24.7538 303.081 33.4332L293.796 42.883C287.437 36.7304 278.892 33.3613 270.048 33.4846C260.773 33.3716 251.867 37.1618 245.52 43.9204C238.925 50.4633 235.289 59.42 235.443 68.7054C235.361 77.8881 238.997 86.7113 245.52 93.1823C258.955 106.576 280.617 106.833 294.371 93.7575C298.469 89.2792 300.975 83.5682 301.52 77.5286H270.202V64.1757H314.513C314.944 66.8668 315.119 69.5888 315.037 72.321C315.592 83.712 311.462 94.836 303.605 103.115C294.864 112.205 282.661 117.156 270.048 116.725ZM373.071 107.85C360.714 119.693 341.219 119.693 328.862 107.85C322.874 102.047 319.608 94.0041 319.834 85.6739C319.608 77.3437 322.884 69.3012 328.862 63.4978C341.229 51.6856 360.704 51.6856 373.071 63.4978C379.049 69.3012 382.325 77.3437 382.099 85.6739C382.315 94.0143 379.018 102.057 373.019 107.85H373.071ZM338.62 99.1398C344.999 105.96 355.702 106.309 362.522 99.9204C362.789 99.6636 363.056 99.4068 363.303 99.1398C366.785 95.5345 368.664 90.6864 368.52 85.6739C368.675 80.6511 366.795 75.7722 363.303 72.1566C356.739 65.3158 345.872 65.0796 339.021 71.6431C338.846 71.8074 338.672 71.982 338.507 72.1566C335.015 75.7722 333.135 80.6511 333.289 85.6739C333.156 90.6864 335.056 95.5448 338.559 99.1398H338.62ZM441.016 107.85C428.66 119.693 409.165 119.693 396.808 107.85C390.82 102.047 387.553 94.0041 387.779 85.6739C387.553 77.3437 390.83 69.3012 396.808 63.4978C409.165 51.6548 428.66 51.6548 441.016 63.4978C446.994 69.3012 450.271 77.3437 450.045 85.6739C450.281 94.0041 447.005 102.047 441.016 107.85ZM406.576 99.1398C412.955 105.96 423.658 106.309 430.478 99.9204C430.745 99.6636 431.012 99.4068 431.259 99.1398C434.741 95.5345 436.62 90.6864 436.476 85.6739C436.631 80.6511 434.751 75.7722 431.259 72.1566C424.695 65.3158 413.828 65.0796 406.987 71.6431C406.812 71.8074 406.638 71.982 406.474 72.1566C402.981 75.7722 401.102 80.6511 401.256 85.6739C401.122 90.6864 403.022 95.5448 406.525 99.1398H406.576ZM485.687 144.591C479.432 144.786 473.3 142.835 468.308 139.055C463.878 135.723 460.388 131.299 458.18 126.215L470.074 121.254C471.369 124.295 473.392 126.965 475.97 129.03C478.723 131.248 482.184 132.419 485.728 132.317C490.268 132.594 494.705 130.879 497.89 127.623C501.033 123.832 502.584 118.964 502.224 114.054V109.565H501.752C497.715 114.352 491.665 116.961 485.42 116.612C477.501 116.632 469.931 113.345 464.548 107.532C458.714 101.769 455.489 93.8705 455.622 85.6636C455.479 77.4156 458.704 69.4655 464.548 63.6416C469.92 57.8074 477.49 54.4897 485.42 54.5103C488.738 54.5 492.025 55.2395 495.024 56.6467C497.622 57.7766 499.934 59.4714 501.813 61.6078H502.286V56.6467H515.228V112.226C515.916 121.11 512.917 129.893 506.928 136.497C501.228 141.951 493.576 144.868 485.687 144.591V144.591ZM486.632 104.512C491.141 104.614 495.465 102.694 498.424 99.2939C501.639 95.6064 503.344 90.8302 503.169 85.9307C503.364 80.949 501.669 76.0906 498.424 72.3107C495.465 68.9006 491.141 66.9901 486.632 67.0928C482 67.0004 477.552 68.9006 474.419 72.3107C470.968 75.9571 469.088 80.8155 469.201 85.828C469.099 90.7994 470.968 95.6064 474.419 99.1911C477.531 102.632 481.979 104.573 486.632 104.512ZM538.246 23.624V114.845H524.626V23.624H538.246ZM575.614 116.725C567.366 116.94 559.405 113.705 553.643 107.799C547.799 101.944 544.604 93.9424 544.82 85.6739C544.512 77.3848 547.583 69.3217 553.325 63.3335C558.748 57.6225 566.328 54.4589 574.196 54.613C577.781 54.5719 581.325 55.2704 584.632 56.6467C587.611 57.8485 590.322 59.6255 592.613 61.8646C594.585 63.7649 596.331 65.8808 597.831 68.1816C599.043 70.1229 600.07 72.1669 600.912 74.2828L602.32 77.8368L560.576 95.0107C563.165 100.948 569.132 104.686 575.603 104.409C581.859 104.43 587.662 101.153 590.898 95.8016L601.333 102.848C598.671 106.662 595.26 109.895 591.309 112.349C586.625 115.307 581.16 116.827 575.614 116.725ZM558.183 84.7289L585.947 73.1941C585.094 71.1603 583.564 69.4861 581.612 68.4486C579.435 67.2161 576.97 66.5895 574.463 66.6203C570.221 66.7333 566.185 68.5103 563.247 71.5814C559.683 74.9916 557.824 79.8089 558.183 84.7289Z" fill="#5F6368"/>
<path d="M673.675 116.725C649.928 117.135 630.35 98.2153 629.939 74.4677C629.929 73.8925 629.929 73.307 629.95 72.7318C629.395 48.9842 648.202 29.2938 671.939 28.7391C672.515 28.7289 673.1 28.7289 673.675 28.7289C685.549 28.3591 696.951 33.4332 704.623 42.5029L697.105 49.8059C691.466 42.7083 682.776 38.7333 673.727 39.103C665.047 38.9079 656.656 42.2666 650.503 48.3884C644.104 54.8287 640.683 63.6416 641.053 72.7113C640.673 81.781 644.104 90.5939 650.503 97.0341C656.656 103.166 665.047 106.515 673.727 106.32C683.834 106.432 693.438 101.934 699.816 94.1067L707.335 101.625C703.401 106.33 698.46 110.089 692.883 112.636C686.864 115.43 680.301 116.827 673.675 116.725Z" fill="#5F6368"/>
<path d="M727.529 114.845H716.723V30.5571H727.529V114.845Z" fill="#5F6368"/>
<path d="M745.175 64.114C756.956 52.4148 775.979 52.4148 787.761 64.114C793.348 70.0201 796.358 77.9086 796.111 86.0333C796.358 94.158 793.348 102.047 787.761 107.953C775.979 119.652 756.956 119.652 745.175 107.953C739.587 102.047 736.578 94.158 736.824 86.0333C736.578 77.9086 739.577 70.0201 745.175 64.114ZM753.207 101.173C760.12 108.476 771.645 108.795 778.958 101.882C779.204 101.656 779.441 101.41 779.667 101.173C783.477 97.0854 785.491 91.6313 785.254 86.0436C785.501 80.4559 783.488 75.0018 779.667 70.9137C772.754 63.6107 761.229 63.2923 753.916 70.205C753.67 70.4309 753.433 70.6775 753.207 70.9137C749.397 75.0018 747.383 80.4559 747.62 86.0436C747.404 91.621 749.438 97.0546 753.259 101.122L753.207 101.173Z" fill="#5F6368"/>
<path d="M855.963 114.845H845.527V106.864H845.219C843.36 109.894 840.73 112.38 837.598 114.064C834.352 115.944 830.654 116.94 826.895 116.93C820.711 117.351 814.682 114.927 810.512 110.356C806.557 105.354 804.575 99.0781 804.924 92.7201V57.2322H815.73V90.7377C815.73 101.492 820.475 106.864 829.976 106.864C834.259 106.997 838.337 105.056 840.936 101.646C843.74 98.1023 845.229 93.6959 845.168 89.1764V57.2322H855.973V114.845H855.963Z" fill="#5F6368"/>
<path d="M892.653 116.724C885.237 116.745 878.18 113.53 873.342 107.901C867.929 101.923 865.033 94.0964 865.249 86.0333C865.033 77.9702 867.929 70.1434 873.342 64.1654C878.18 58.5469 885.237 55.3216 892.653 55.3422C896.761 55.2805 900.819 56.2461 904.445 58.1566C907.639 59.7589 910.34 62.1932 912.271 65.2028H912.744L912.271 57.2219V30.5571H923.077V114.845H912.641V106.864H912.169C910.238 109.873 907.536 112.308 904.342 113.91C900.747 115.8 896.731 116.776 892.653 116.724V116.724ZM894.43 106.864C899.37 106.936 904.106 104.881 907.423 101.225C911.09 97.0443 912.97 91.5902 912.641 86.0333C912.97 80.4867 911.09 75.0223 907.423 70.8418C900.87 63.6313 889.715 63.1074 882.505 69.6709C882.094 70.0406 881.703 70.4412 881.334 70.8418C877.657 74.9915 875.777 80.4354 876.116 85.9717C875.777 91.508 877.657 96.9519 881.334 101.102C884.662 104.84 889.438 106.936 894.43 106.864Z" fill="#5F6368"/>
</svg>
